<svg width="564" height="153" viewBox="0 0 564 153" fill="none" xmlns="http://www.w3.org/2000/svg">
<path d="M75.3148 48.3391H85.6622V103.614C85.6622 111.084 83.4104 116.928 78.9069 121.146C74.4391 125.364 68.4702 127.472 61.0001 127.472C53.244 127.472 47.2036 125.489 42.8788 121.521C38.554 117.554 36.3916 111.996 36.3916 104.847H46.6853C46.6853 109.315 47.9005 112.8 50.331 115.302C52.7972 117.804 56.3536 119.055 61.0001 119.055C65.2534 119.055 68.6846 117.715 71.2938 115.034C73.9387 112.353 75.2791 108.6 75.3148 103.775V48.3391ZM99.0119 96.8591C99.0119 91.1761 100.12 86.065 102.336 81.5257C104.588 76.9864 107.697 73.4837 111.665 71.0175C115.668 68.5513 120.225 67.3182 125.336 67.3182C133.235 67.3182 139.615 70.0525 144.476 75.521C149.373 80.9896 151.821 88.2631 151.821 97.3416V98.0386C151.821 103.686 150.731 108.761 148.551 113.265C146.406 117.733 143.314 121.217 139.275 123.719C135.272 126.221 130.662 127.472 125.443 127.472C117.58 127.472 111.2 124.738 106.303 119.269C101.442 113.801 99.0119 106.563 99.0119 97.5561V96.8591ZM108.984 98.0386C108.984 104.472 110.467 109.637 113.434 113.533C116.436 117.429 120.439 119.377 125.443 119.377C130.483 119.377 134.486 117.411 137.453 113.479C140.419 109.512 141.903 103.972 141.903 96.8591C141.903 90.497 140.383 85.3501 137.345 81.4185C134.343 77.4511 130.34 75.4674 125.336 75.4674C120.439 75.4674 116.49 77.4154 113.487 81.3113C110.485 85.2071 108.984 90.7829 108.984 98.0386ZM213.369 98.0386C213.369 106.903 211.332 114.033 207.257 119.43C203.182 124.792 197.714 127.472 190.851 127.472C183.524 127.472 177.859 124.881 173.856 119.698L173.374 126.4H164.259V44.05H174.178V74.7704C178.181 69.8023 183.703 67.3182 190.744 67.3182C197.785 67.3182 203.308 69.981 207.311 75.3066C211.35 80.6321 213.369 87.9236 213.369 97.1808V98.0386ZM203.451 96.9127C203.451 90.1574 202.146 84.9391 199.537 81.2576C196.928 77.5762 193.175 75.7355 188.278 75.7355C181.737 75.7355 177.037 78.7736 174.178 84.8497V109.941C177.216 116.017 181.952 119.055 188.385 119.055C193.139 119.055 196.838 117.214 199.483 113.533C202.128 109.851 203.451 104.311 203.451 96.9127Z" fill="black"/>
<path d="M251.988 73.7496C245.596 74.8232 240.496 75.7992 236.69 76.6776C235.518 78.532 234.762 79.7764 234.42 80.4108C233.396 82.2164 232.468 83.7292 231.639 84.9492C230.858 86.1204 230.004 87.1696 229.077 88.0968C228.052 89.1216 227.198 89.8536 226.515 90.2928C225.88 90.732 225.124 90.9516 224.246 90.9516C222.782 90.9516 221.488 90.6344 220.366 90C219.292 89.3168 218.756 88.6336 218.756 87.9504C218.853 87.8528 219.39 86.7792 220.366 84.7296C221.342 82.6312 223.148 80.0204 225.783 76.8972C225.783 76.5068 225.661 76.0188 225.417 75.4332C225.173 74.8476 225.051 74.506 225.051 74.4084C225.051 72.9932 227.271 71.2852 231.712 69.2844C234.201 65.5756 236.812 61.9156 239.544 58.3044C242.326 54.6932 245.718 50.4232 249.719 45.4944C250.695 44.2744 251.94 43.274 253.452 42.4932C254.965 41.7124 256.478 41.322 257.991 41.322C259.552 41.322 260.724 41.4684 261.504 41.7612C262.285 42.054 262.773 42.4444 262.968 42.9324C263.212 43.4204 263.334 44.1036 263.334 44.982C263.139 46.446 263.017 47.544 262.968 48.276C262.236 54.1808 261.675 59.256 261.285 63.5016C260.943 67.6984 260.772 71.8952 260.772 76.092C260.772 79.9472 260.943 83.4852 261.285 86.706C261.138 87.8772 260.626 88.9508 259.748 89.9268C258.869 90.854 257.844 91.3176 256.673 91.3176C254.428 91.3176 252.94 90.7564 252.208 89.634C251.525 88.5116 251.183 86.6084 251.183 83.9244C251.183 81.9724 251.452 78.5808 251.988 73.7496ZM242.472 68.2596C243.351 68.0644 244.693 67.8448 246.498 67.6008L252.354 66.7224C252.794 59.9392 253.306 55.0592 253.892 52.0824C251.988 54.3272 248.182 59.7196 242.472 68.2596ZM301.856 35.7588C302.051 35.0268 302.612 34.4412 303.54 34.002C304.516 33.514 305.54 33.27 306.614 33.27C307.492 33.27 308.444 33.4652 309.469 33.8556C310.494 34.246 311.006 34.8072 311.006 35.5392L306.394 53.5464C302.344 69.3088 299.977 78.9224 299.294 82.3872C299.001 83.8512 298.855 84.9736 298.855 85.7544C298.855 87.072 299.001 88.3652 299.294 89.634C299.196 89.9268 298.806 90.2196 298.123 90.5124C297.488 90.8052 296.903 90.9516 296.366 90.9516C295.39 90.9516 294.316 90.8296 293.145 90.5856C291.974 90.3416 291.242 90.0732 290.949 89.7804C290.51 89.39 290.29 88.6092 290.29 87.438C290.29 86.5596 290.388 85.73 290.583 84.9492C289.558 86.4132 287.997 87.6332 285.898 88.6092C283.849 89.5364 282.19 90 280.921 90C273.454 90 269.721 85.974 269.721 77.922C269.721 74.4084 270.502 70.8948 272.064 67.3812C273.674 63.8676 275.943 60.964 278.871 58.6704C281.848 56.3768 285.288 55.23 289.192 55.23C290.266 55.23 291.462 55.6692 292.779 56.5476C294.097 57.3772 295.17 58.3288 296 59.4024C297.074 54.864 298.025 51.082 298.855 48.0564C299.245 46.446 299.684 44.616 300.172 42.5664C300.709 40.468 301.27 38.1988 301.856 35.7588ZM294.39 66.21C294.097 65.1364 293.389 64.1604 292.267 63.282C291.193 62.3548 290.315 61.8912 289.632 61.8912C287.387 61.8912 285.288 62.6232 283.336 64.0872C281.384 65.5512 279.823 67.4544 278.652 69.7968C277.529 72.1392 276.968 74.5548 276.968 77.0436C276.968 78.898 277.31 80.5572 277.993 82.0212C278.676 83.4852 279.725 84.2172 281.14 84.2172C282.36 84.2172 283.776 83.8268 285.386 83.046C287.045 82.2164 288.509 81.1672 289.778 79.8984C291.047 78.5808 291.828 77.2388 292.12 75.8724L294.39 66.21ZM313.886 58.7436C314.032 57.67 314.203 56.8404 314.398 56.2548C314.593 55.6692 314.959 55.2056 315.496 54.864C316.082 54.5224 316.936 54.3516 318.058 54.3516C319.766 54.3516 320.913 54.8396 321.499 55.8156C322.084 56.7428 322.45 57.9628 322.597 59.4756C322.499 59.9148 322.426 60.2808 322.377 60.5736C322.377 60.8664 322.328 61.208 322.231 61.5984C323.89 59.6464 325.476 58.158 326.989 57.1332C328.55 56.1084 330.356 55.596 332.405 55.596C334.699 55.596 336.553 56.206 337.969 57.426C339.433 58.5972 340.287 59.988 340.531 61.5984C341.897 59.4024 343.629 57.8652 345.728 56.9868C347.826 56.0596 349.973 55.596 352.169 55.596C355 55.596 357.001 56.2792 358.172 57.6456C359.392 59.012 360.002 60.7688 360.002 62.916C360.002 63.5992 359.904 64.5752 359.709 65.844C358.44 72.3344 357.147 79.1176 355.829 86.1936C355.488 87.9504 355.122 89.268 354.731 90.1464C354.341 91.0736 353.755 91.7568 352.975 92.196C352.194 92.6352 351.071 92.8548 349.607 92.8548C348.436 92.8548 347.582 92.4644 347.045 91.6836C346.509 90.9028 346.24 89.9268 346.24 88.7556C346.24 88.3652 346.289 87.8284 346.387 87.1452C347.07 83.534 347.924 79.4592 348.949 74.9208C349.046 74.4816 349.388 72.9688 349.973 70.3824C350.559 67.796 350.852 66.1368 350.852 65.4048C350.852 64.38 350.632 63.6724 350.193 63.282C349.754 62.8428 349.241 62.6232 348.656 62.6232C347.436 62.6232 345.899 63.16 344.044 64.2336C342.239 65.3072 340.97 66.2832 340.238 67.1616C339.457 69.6504 338.091 75.1892 336.139 83.778C335.895 84.8028 335.748 85.6812 335.699 86.4132C335.504 87.4868 335.309 88.2432 335.114 88.6824C334.919 89.1216 334.528 89.4388 333.943 89.634C333.357 89.8292 332.405 89.9268 331.088 89.9268C327.721 89.9268 326.037 89.2436 326.037 87.8772C326.33 87.1452 326.793 85.4616 327.428 82.8264C328.062 80.1424 328.526 78.2636 328.819 77.19C329.697 73.3348 330.746 69.0648 331.966 64.38C331.966 63.9408 331.771 63.5748 331.381 63.282C330.99 62.9892 330.551 62.8428 330.063 62.8428C328.306 62.8428 326.501 63.5748 324.646 65.0388C322.841 66.5028 321.45 68.0644 320.474 69.7236C319.791 72.3588 319.01 75.3356 318.131 78.654C317.302 81.9236 316.667 84.5588 316.228 86.5596C315.935 87.926 315.447 88.8776 314.764 89.4144C314.081 89.9512 312.91 90.2196 311.251 90.2196C309.835 90.2196 308.762 90.0488 308.03 89.7072C307.298 89.3168 306.932 88.5848 306.932 87.5112C306.932 86.9744 307.542 84.1196 308.762 78.9468C310.031 73.774 311.739 67.0396 313.886 58.7436ZM372.708 46.5192C372.708 45.0064 373.171 43.6644 374.099 42.4932C375.075 41.322 376.417 40.7364 378.125 40.7364C379.93 40.7364 381.492 41.2976 382.809 42.42C384.176 43.5424 384.859 44.8112 384.859 46.2264C384.859 47.6416 384.176 48.8616 382.809 49.8864C381.443 50.9112 379.857 51.4236 378.051 51.4236C376.295 51.4236 374.953 50.9844 374.025 50.106C373.147 49.1788 372.708 47.9832 372.708 46.5192ZM380.394 59.4756C377.807 70.0164 375.831 77.9464 374.465 83.2656C374.269 84.0464 374.172 84.9004 374.172 85.8276L374.245 87.8772C374.245 88.7068 373.977 89.2924 373.44 89.634C372.952 89.9756 371.878 90.1708 370.219 90.2196C368.609 90.2196 367.389 90.0488 366.559 89.7072C365.729 89.3656 365.315 88.6336 365.315 87.5112C365.315 86.9744 365.925 84.1196 367.145 78.9468C368.413 73.774 370.121 67.0396 372.269 58.7436L370.585 56.5476C370.439 56.4012 370.365 56.2304 370.365 56.0352C370.365 55.5472 370.902 55.1568 371.976 54.864C373.049 54.5224 374.538 54.3516 376.441 54.3516C378.1 54.3516 379.149 54.8396 379.589 55.8156C380.077 56.7428 380.345 57.9628 380.394 59.4756ZM391.767 54.498C394.06 53.278 395.963 52.668 397.476 52.668C399.135 52.668 400.063 53.522 400.258 55.23L397.33 66.1368C400.551 61.5008 403.552 58.3044 406.333 56.5476C409.115 54.742 411.604 53.8392 413.8 53.8392C416.386 53.8392 418.265 54.3272 419.436 55.3032C420.656 56.2304 421.291 57.7188 421.339 59.7684C419.68 64.258 418.289 68.528 417.167 72.5784C416.093 76.6288 415.557 80.362 415.557 83.778V85.4616C415.557 86.828 415.166 87.7308 414.385 88.17C413.653 88.5604 412.165 88.7556 409.92 88.7556C409.042 88.7556 408.212 88.6092 407.431 88.3164C406.699 88.0236 406.333 87.5356 406.333 86.8524C406.333 84.9004 406.773 82.0456 407.651 78.288C408.529 74.5304 409.505 70.8216 410.579 67.1616C411.701 63.5016 412.263 61.7692 412.263 61.9644C412.263 61.2812 411.872 60.9396 411.091 60.9396C410.067 60.9396 408.407 61.8424 406.114 63.648C403.82 65.4536 401.478 68.284 399.087 72.1392C396.695 75.9456 394.792 80.728 393.377 86.4864C393.328 86.7792 393.231 87.316 393.084 88.0968C392.938 88.8776 392.547 89.4388 391.913 89.7804C391.279 90.0732 390.254 90.2196 388.839 90.2196C387.228 90.2196 386.033 90.0488 385.252 89.7072C384.471 89.3656 384.081 88.6336 384.081 87.5112L386.277 78.1416C386.862 75.604 387.619 72.3832 388.546 68.4792C389.473 64.5264 390.547 59.866 391.767 54.498Z" fill="#B12929"/>
<g clip-path="url(#clip0_56:40)">
<path d="M61 48.8002H48.8V42.7002C48.8 39.3147 46.0855 36.6002 42.7 36.6002H30.5C27.1145 36.6002 24.4 39.3147 24.4 42.7002V48.8002H12.2C8.81448 48.8002 6.13048 51.5147 6.13048 54.9002L6.09998 88.4502C6.09998 91.8357 8.81448 94.5502 12.2 94.5502H61C64.3855 94.5502 67.1 91.8357 67.1 88.4502V54.9002C67.1 51.5147 64.3855 48.8002 61 48.8002ZM42.7 48.8002H30.5V42.7002H42.7V48.8002Z" fill="#B12929"/>
</g>
<defs>
<clipPath id="clip0_56:40">
<rect width="73.2" height="73.2" fill="white" transform="translate(0 30.5001)"/>
</clipPath>
</defs>
</svg>
