<svg width="564" height="153" viewBox="0 0 564 153" fill="none" xmlns="http://www.w3.org/2000/svg">
<path d="M75.3148 48.339H85.6622V103.614C85.6622 111.084 83.4104 116.928 78.9069 121.146C74.4391 125.363 68.4702 127.472 61.0001 127.472C53.244 127.472 47.2036 125.489 42.8788 121.521C38.554 117.554 36.3916 111.996 36.3916 104.847H46.6853C46.6853 109.315 47.9005 112.8 50.331 115.302C52.7972 117.804 56.3536 119.055 61.0001 119.055C65.2534 119.055 68.6846 117.715 71.2938 115.034C73.9387 112.353 75.2791 108.6 75.3148 103.775V48.339ZM99.0119 96.8591C99.0119 91.1761 100.12 86.0649 102.336 81.5257C104.588 76.9864 107.697 73.4837 111.665 71.0175C115.668 68.5513 120.225 67.3182 125.336 67.3182C133.235 67.3182 139.615 70.0524 144.476 75.521C149.373 80.9895 151.821 88.2631 151.821 97.3416V98.0386C151.821 103.686 150.731 108.761 148.551 113.265C146.406 117.733 143.314 121.217 139.275 123.719C135.272 126.221 130.662 127.472 125.443 127.472C117.58 127.472 111.2 124.738 106.303 119.269C101.442 113.801 99.0119 106.563 99.0119 97.556V96.8591ZM108.984 98.0386C108.984 104.472 110.467 109.637 113.434 113.533C116.436 117.429 120.439 119.377 125.443 119.377C130.483 119.377 134.486 117.411 137.453 113.479C140.419 109.512 141.903 103.972 141.903 96.8591C141.903 90.497 140.383 85.3501 137.345 81.4184C134.343 77.4511 130.34 75.4674 125.336 75.4674C120.439 75.4674 116.49 77.4153 113.487 81.3112C110.485 85.2071 108.984 90.7829 108.984 98.0386ZM213.369 98.0386C213.369 106.903 211.332 114.033 207.257 119.43C203.182 124.792 197.714 127.472 190.851 127.472C183.524 127.472 177.859 124.881 173.856 119.698L173.374 126.4H164.259V44.05H174.178V74.7704C178.181 69.8022 183.703 67.3182 190.744 67.3182C197.785 67.3182 203.308 69.9809 207.311 75.3065C211.35 80.6321 213.369 87.9235 213.369 97.1808V98.0386ZM203.451 96.9127C203.451 90.1574 202.146 84.9391 199.537 81.2576C196.928 77.5762 193.175 75.7354 188.278 75.7354C181.737 75.7354 177.037 78.7735 174.178 84.8497V109.941C177.216 116.017 181.952 119.055 188.385 119.055C193.139 119.055 196.838 117.214 199.483 113.533C202.128 109.851 203.451 104.311 203.451 96.9127Z" fill="white"/>
<path d="M261.651 77.2632C260.919 79.4592 259.455 81.6796 257.259 83.9244C255.112 86.1204 252.379 87.9504 249.06 89.4144C245.791 90.8296 242.204 91.5372 238.3 91.5372C232.346 91.5372 227.979 90.0976 225.197 87.2184C222.416 84.2904 221.025 80.5572 221.025 76.0188C221.025 69.5772 222.464 63.7456 225.344 58.524C228.223 53.2536 232.102 49.13 236.982 46.1532C241.862 43.1276 247.133 41.6148 252.794 41.6148C255.038 41.6148 257.088 42.1272 258.942 43.152C260.797 44.1768 262.261 45.6652 263.334 47.6172C264.408 49.5204 264.945 51.7652 264.945 54.3516C264.945 55.8156 264.384 57.06 263.261 58.0848C262.188 59.1096 260.724 59.622 258.869 59.622C257.405 59.622 256.405 59.2316 255.868 58.4508C255.38 57.67 255.136 56.6696 255.136 55.4496L255.209 53.1072C255.209 52.2288 254.721 51.3748 253.745 50.5452C252.769 49.7156 251.866 49.3008 251.037 49.3008C248.304 49.3008 245.303 50.5452 242.033 53.034C238.764 55.474 236.006 58.7924 233.762 62.9892C231.517 67.1372 230.394 71.6512 230.394 76.5312C230.394 78.776 231.273 80.606 233.03 82.0212C234.786 83.4364 237.007 84.144 239.691 84.144C240.569 84.144 241.716 83.8512 243.131 83.2656C244.546 82.68 245.84 81.948 247.011 81.0696C248.231 80.1912 249.036 79.3372 249.426 78.5076C250.012 77.2876 250.842 75.9212 251.915 74.4084C252.989 72.8956 254.062 72.1392 255.136 72.1392C257.625 72.1392 259.308 72.676 260.187 73.7496C261.114 74.8232 261.602 75.9944 261.651 77.2632ZM295.105 86.1936C295.203 87.4624 295.373 88.6092 295.617 89.634C295.52 89.9268 295.081 90.2196 294.3 90.5124C293.568 90.8052 292.933 90.9516 292.397 90.9516C290.64 90.9516 289.371 90.6832 288.59 90.1464C287.858 89.6584 287.492 88.902 287.492 87.8772C287.492 86.9012 287.59 85.9252 287.785 84.9492C286.711 86.4132 285.125 87.6332 283.027 88.6092C280.977 89.5364 279.318 90 278.049 90C274.78 90 272.047 89.0484 269.851 87.1452C267.704 85.242 266.63 82.192 266.63 77.9952C266.63 74.0424 267.557 70.3336 269.412 66.8688C271.315 63.3552 273.926 60.5492 277.244 58.4508C280.563 56.3036 284.247 55.23 288.297 55.23C289.078 55.23 290.103 55.4496 291.372 55.8888C292.641 56.2792 293.909 56.9868 295.178 58.0116C296.496 58.9876 297.594 60.2564 298.472 61.818C298.863 61.818 299.326 62.0132 299.863 62.4036C300.4 62.794 300.668 63.1844 300.668 63.5748C300.668 64.014 300.595 64.4532 300.449 64.8924L295.105 86.1936ZM291.811 65.6976C291.518 64.624 290.933 63.7212 290.054 62.9892C289.225 62.2572 288.468 61.8912 287.785 61.8912C285.54 61.8912 283.417 62.6964 281.417 64.3068C279.465 65.8684 277.879 67.8204 276.659 70.1628C275.439 72.5052 274.829 74.7256 274.829 76.824C274.829 78.8736 275.073 80.5572 275.561 81.8748C276.049 83.1924 277 83.8512 278.415 83.8512C279.635 83.8512 281.026 83.4852 282.588 82.7532C284.198 82.0212 285.613 81.0452 286.833 79.8252C288.102 78.5564 288.932 77.2388 289.322 75.8724L291.811 65.6976ZM308.497 56.5476C308.351 56.4012 308.277 56.2304 308.277 56.0352C308.277 55.5472 308.814 55.1568 309.888 54.864C310.961 54.5224 312.45 54.3516 314.353 54.3516C316.11 54.3516 317.403 54.8152 318.233 55.7424C319.062 56.6208 319.55 57.6944 319.697 58.9632L318.379 63.7212C319.404 62.306 320.843 60.964 322.698 59.6952C324.552 58.3776 326.431 57.3284 328.334 56.5476C330.237 55.7668 331.799 55.3764 333.019 55.3764C335.605 55.3764 337.484 55.8644 338.655 56.8404C339.827 57.7676 340.412 59.256 340.412 61.3056C337.533 68.8208 335.63 76.9216 334.703 85.608L335.727 89.1948C335.142 90.3172 334.312 91.1956 333.239 91.83C332.214 92.5132 330.701 92.8548 328.7 92.8548C327.529 92.8548 326.675 92.4644 326.138 91.6836C325.601 90.9028 325.333 89.9268 325.333 88.7556C325.333 85.486 325.797 81.8992 326.724 77.9952C327.7 74.0424 328.822 70.0164 330.091 65.9172C330.579 64.3556 330.823 63.5504 330.823 63.5016C330.823 62.8184 330.433 62.4768 329.652 62.4768C328.578 62.4768 326.943 63.2332 324.747 64.746C322.6 66.2588 320.38 68.8208 318.086 72.432C315.793 75.9944 313.938 80.6792 312.523 86.4864C312.425 86.7792 312.303 87.316 312.157 88.0968C312.011 88.8776 311.62 89.4388 310.986 89.7804C310.351 90.0732 309.327 90.2196 307.911 90.2196C306.301 90.2196 305.105 90.0488 304.325 89.7072C303.593 89.3656 303.227 88.6336 303.227 87.5112C303.373 86.828 303.593 85.9984 303.885 85.0224C306.716 73.652 308.887 64.8924 310.4 58.7436L308.497 56.5476ZM364.06 55.596C365.329 55.596 366.5 55.84 367.574 56.328C368.696 56.816 369.599 57.4748 370.282 58.3044C371.21 54.742 372.015 51.7408 372.698 49.3008C374.016 44.6648 374.967 41.0536 375.553 38.4672C375.748 37.6864 376.26 37.0764 377.09 36.6372C377.92 36.198 378.847 35.9784 379.872 35.9784C380.75 35.9784 381.702 36.1736 382.726 36.564C383.751 36.9544 384.264 37.5156 384.264 38.2476C382.409 45.5676 380.36 53.3756 378.115 61.6716C374.894 73.774 372.893 81.6552 372.112 85.3152C372.112 86.9256 372.234 88.0724 372.478 88.7556C372.137 89.634 371.332 90.2196 370.063 90.5124C368.843 90.854 367.769 91.0248 366.842 91.0248C365.964 91.0248 365.378 90.8052 365.085 90.366C364.841 89.9756 364.622 89.3656 364.426 88.536C364.231 87.7064 364.109 87.1452 364.06 86.8524C361.962 88.2676 359.815 89.3412 357.619 90.0732C355.472 90.854 353.666 91.2444 352.202 91.2444C350.933 91.2444 349.494 90.8296 347.883 90C346.322 89.1704 344.98 88.048 343.857 86.6328C342.735 85.2176 342.174 83.656 342.174 81.948C342.174 79.2152 343.076 75.726 344.882 71.4804C346.688 67.2348 349.225 63.526 352.495 60.354C355.813 57.182 359.668 55.596 364.06 55.596ZM364.207 80.7036C364.646 79.7764 365.085 78.4832 365.524 76.824C365.964 75.1648 366.403 73.4568 366.842 71.7C367.379 69.1624 368.013 66.6492 368.745 64.1604C368.501 63.1844 367.891 62.55 366.915 62.2572C365.988 61.9156 365.11 61.7448 364.28 61.7448C362.474 61.7448 360.522 62.9648 358.424 65.4048C356.326 67.8448 354.52 70.6996 353.007 73.9692C351.543 77.19 350.811 79.8008 350.811 81.8016C350.811 82.7776 351.08 83.4852 351.616 83.9244C352.153 84.3148 352.836 84.51 353.666 84.51C354.788 84.51 356.57 84.0952 359.01 83.2656C361.498 82.3872 363.231 81.5332 364.207 80.7036ZM390.364 46.5192C390.364 45.0064 390.828 43.6644 391.755 42.4932C392.731 41.322 394.073 40.7364 395.781 40.7364C397.587 40.7364 399.148 41.2976 400.466 42.42C401.832 43.5424 402.516 44.8112 402.516 46.2264C402.516 47.6416 401.832 48.8616 400.466 49.8864C399.1 50.9112 397.514 51.4236 395.708 51.4236C393.951 51.4236 392.609 50.9844 391.682 50.106C390.804 49.1788 390.364 47.9832 390.364 46.5192ZM383.41 85.0956C383.41 84.2172 385.582 75.4332 389.925 58.7436L389.486 56.0352C389.486 55.4984 389.803 55.0836 390.438 54.7908C391.072 54.498 392.292 54.3516 394.098 54.3516C395.513 54.3516 396.538 54.742 397.172 55.5228C397.855 56.3036 398.197 57.2308 398.197 58.3044C398.197 58.5972 398.148 58.9876 398.05 59.4756L391.536 85.8276L391.975 88.536C391.975 89.0728 391.658 89.4876 391.023 89.7804C390.389 90.0732 389.169 90.2196 387.363 90.2196C385.753 90.2196 384.704 89.756 384.216 88.8288C383.728 87.8528 383.459 86.6084 383.41 85.0956ZM422.673 55.596C423.941 55.596 425.137 55.84 426.259 56.328C427.382 56.816 428.285 57.4748 428.968 58.3044L431.457 47.9832C432.921 42.3224 433.945 38.0768 434.531 35.2464C434.726 34.4656 435.239 33.8556 436.068 33.4164C436.947 32.9772 437.898 32.7576 438.923 32.7576C439.753 32.7576 440.68 32.9528 441.705 33.3432C442.729 33.7336 443.266 34.2948 443.315 35.0268C442.729 37.418 440.802 45.3236 437.532 58.7436C434.067 72.554 431.969 81.4112 431.237 85.3152C431.237 86.8768 431.408 88.0236 431.749 88.7556C431.408 89.634 430.603 90.2196 429.334 90.5124C428.065 90.854 426.967 91.0248 426.04 91.0248C425.21 91.0248 424.649 90.8052 424.356 90.366C424.063 89.9756 423.819 89.39 423.624 88.6092C423.429 87.7796 423.283 87.194 423.185 86.8524C421.135 88.2676 419.013 89.3412 416.817 90.0732C414.669 90.854 412.864 91.2444 411.4 91.2444C409.936 91.2444 408.399 90.6344 406.788 89.4144C405.227 88.1456 403.909 86.584 402.835 84.7296C401.811 82.8752 401.298 81.1428 401.298 79.5324C401.298 76.7996 402.152 73.53 403.86 69.7236C405.568 65.9172 408.033 62.6232 411.253 59.8416C414.523 57.0112 418.329 55.596 422.673 55.596ZM423.258 80.7036C423.941 79.0932 424.722 76.1896 425.601 71.9928C426.43 68.284 427.065 65.6732 427.504 64.1604C427.211 63.1844 426.577 62.55 425.601 62.2572C424.673 61.9156 423.795 61.7448 422.965 61.7448C421.16 61.7448 419.232 62.794 417.183 64.8924C415.133 66.9908 413.401 69.4796 411.985 72.3588C410.619 75.1892 409.936 77.6048 409.936 79.6056C409.936 80.6792 410.229 81.7772 410.814 82.8996C411.449 83.9732 412.107 84.51 412.791 84.51C413.913 84.51 415.694 84.0952 418.134 83.2656C420.623 82.3872 422.331 81.5332 423.258 80.7036ZM470.058 88.7556C469.765 89.634 468.984 90.2196 467.716 90.5124C466.496 90.854 465.422 91.0248 464.495 91.0248C463.665 91.0248 463.104 90.8052 462.811 90.366C462.518 89.9756 462.274 89.39 462.079 88.6092C461.884 87.7796 461.738 87.194 461.64 86.8524C459.59 88.2676 457.468 89.3412 455.272 90.0732C453.124 90.854 451.319 91.2444 449.855 91.2444C448.391 91.2444 446.878 90.9028 445.316 90.2196C443.804 89.5852 442.486 88.4628 441.364 86.8524C440.241 85.1932 439.68 82.9972 439.68 80.2644C439.68 77.4828 440.534 74.14 442.242 70.236C443.999 66.2832 446.488 62.8672 449.708 59.988C452.978 57.06 456.784 55.596 461.128 55.596C463.324 55.596 465.495 56.1328 467.642 57.2064C469.79 58.2312 471.546 59.5488 472.913 61.1592C474.279 62.7208 474.987 64.3068 475.036 65.9172L474.084 68.4792C472.718 72.2856 471.644 75.5308 470.863 78.2148C470.082 80.85 469.692 83.2168 469.692 85.3152C469.692 86.7304 469.814 87.8772 470.058 88.7556ZM461.713 80.7036C462.152 79.4836 462.689 77.8976 463.324 75.9456C464.397 72.2368 465.422 69.1136 466.398 66.576C466.203 65.8928 465.764 65.1852 465.08 64.4532C464.397 63.6724 463.69 63.038 462.958 62.55C462.226 62.0132 461.713 61.7448 461.42 61.7448C459.615 61.7448 457.687 62.8428 455.638 65.0388C453.588 67.186 451.856 69.748 450.44 72.7248C449.074 75.7016 448.391 78.288 448.391 80.484C448.391 81.46 448.684 82.3872 449.269 83.2656C449.855 84.0952 450.489 84.51 451.172 84.51C452.295 84.51 454.076 84.0952 456.516 83.2656C459.005 82.3872 460.737 81.5332 461.713 80.7036ZM488.281 81.948C488.281 83.0704 488.574 83.9732 489.16 84.6564C489.745 85.2908 490.575 85.608 491.649 85.608C493.113 85.608 494.308 85.1932 495.235 84.3636C496.211 83.4852 497.236 82.2652 498.31 80.7036C499.091 79.5812 499.725 78.776 500.213 78.288C500.701 77.8 501.262 77.556 501.897 77.556C503.165 77.556 504.068 77.7268 504.605 78.0684C505.142 78.3612 505.41 78.9956 505.41 79.9716C505.41 80.4108 505.361 80.9476 505.264 81.582C505.166 82.1676 505.044 82.6068 504.898 82.8996C503.727 85.3884 501.799 87.5356 499.115 89.3412C496.48 91.1468 493.479 92.0496 490.111 92.0496C486.744 92.0496 484.207 91.2444 482.499 89.634C480.791 87.9748 479.937 85.6324 479.937 82.6068C479.937 82.1676 480.156 81.0208 480.595 79.1664C481.035 77.312 481.596 75.0916 482.279 72.5052L484.329 64.1604L479.863 64.5264C479.278 64.5264 478.839 64.3068 478.546 63.8676C478.253 63.4284 478.107 62.8916 478.107 62.2572C478.107 61.0372 478.546 59.8172 479.424 58.5972C479.522 58.4508 480.01 58.3044 480.888 58.158C481.767 58.0116 482.84 57.8652 484.109 57.7188L486.085 57.4992L488.574 46.812C489.062 45.5432 489.794 44.5672 490.77 43.884C491.795 43.152 492.747 42.786 493.625 42.786C494.601 42.786 495.431 43.0788 496.114 43.6644C496.797 44.25 497.163 44.9332 497.212 45.714L494.577 56.694C496.48 56.45 498.237 56.2548 499.847 56.1084C501.506 55.9132 502.799 55.8156 503.727 55.8156C505.581 55.8156 506.508 56.8892 506.508 59.0364C506.508 59.866 506.142 60.6224 505.41 61.3056C504.727 61.94 503.971 62.3304 503.141 62.4768L492.893 63.5016L488.281 81.948ZM522.797 91.5372C518.015 91.5372 514.525 90.5856 512.329 88.6824C510.133 86.7792 509.035 84.2416 509.035 81.0696C509.035 76.4336 510.182 72.1392 512.476 68.1864C514.818 64.2336 517.917 61.1104 521.772 58.8168C525.676 56.4744 529.873 55.3032 534.363 55.3032C537.095 55.3032 539.389 56.084 541.243 57.6456C543.098 59.1584 544.025 61.4032 544.025 64.38C544.025 66.088 543.464 67.5032 542.341 68.6256C541.268 69.6992 539.706 70.6752 537.657 71.5536C535.607 72.3832 532.289 73.5788 527.701 75.1404C523.553 76.5068 520.186 77.6536 517.6 78.5808C517.405 79.3128 517.307 80.0692 517.307 80.85C517.307 82.2164 517.868 83.2656 518.991 83.9976C520.162 84.7296 521.797 85.0956 523.895 85.0956C525.213 85.0956 526.725 84.8272 528.433 84.2904C530.141 83.7536 531.215 83.0704 531.654 82.2408C533.313 79.2152 534.826 77.7024 536.193 77.7024C538.193 77.7024 539.535 78.0928 540.219 78.8736C540.951 79.6056 541.341 80.4352 541.39 81.3624C540.804 82.924 539.657 84.51 537.949 86.1204C536.241 87.682 534.07 88.9752 531.435 90C528.799 91.0248 525.92 91.5372 522.797 91.5372ZM519.649 71.8464C524.481 70.2848 528.458 68.8452 531.581 67.5276C534.704 66.1612 536.266 64.8192 536.266 63.5016C536.266 62.916 535.949 62.4524 535.314 62.1108C534.68 61.7204 533.997 61.5252 533.265 61.5252C531.801 61.5252 530.117 62.0864 528.214 63.2088C526.359 64.3312 524.627 65.6976 523.017 67.308C521.406 68.9184 520.284 70.4312 519.649 71.8464Z" fill="#29B169"/>
<path d="M61 48.8002H48.8V42.7002C48.8 39.3147 46.0855 36.6002 42.7 36.6002H30.5C27.1145 36.6002 24.4 39.3147 24.4 42.7002V48.8002H12.2C8.81448 48.8002 6.13048 51.5147 6.13048 54.9002L6.09998 88.4502C6.09998 91.8357 8.81448 94.5502 12.2 94.5502H61C64.3855 94.5502 67.1 91.8357 67.1 88.4502V54.9002C67.1 51.5147 64.3855 48.8002 61 48.8002ZM42.7 48.8002H30.5V42.7002H42.7V48.8002Z" fill="#29B169"/>
</svg>
