<svg width="564" height="153" viewBox="0 0 564 153" fill="none" xmlns="http://www.w3.org/2000/svg">
<path d="M75.3148 48.3391H85.6622V103.614C85.6622 111.084 83.4104 116.928 78.9069 121.146C74.4391 125.364 68.4702 127.472 61.0001 127.472C53.244 127.472 47.2036 125.489 42.8788 121.521C38.554 117.554 36.3916 111.996 36.3916 104.847H46.6853C46.6853 109.315 47.9005 112.8 50.331 115.302C52.7972 117.804 56.3536 119.055 61.0001 119.055C65.2534 119.055 68.6846 117.715 71.2938 115.034C73.9387 112.353 75.2791 108.6 75.3148 103.775V48.3391ZM99.0119 96.8591C99.0119 91.1761 100.12 86.065 102.336 81.5257C104.588 76.9864 107.697 73.4837 111.665 71.0175C115.668 68.5513 120.225 67.3182 125.336 67.3182C133.235 67.3182 139.615 70.0525 144.476 75.521C149.373 80.9896 151.821 88.2631 151.821 97.3416V98.0386C151.821 103.686 150.731 108.761 148.551 113.265C146.406 117.733 143.314 121.217 139.275 123.719C135.272 126.221 130.662 127.472 125.443 127.472C117.58 127.472 111.2 124.738 106.303 119.269C101.442 113.801 99.0119 106.563 99.0119 97.5561V96.8591ZM108.984 98.0386C108.984 104.472 110.467 109.637 113.434 113.533C116.436 117.429 120.439 119.377 125.443 119.377C130.483 119.377 134.486 117.411 137.453 113.479C140.419 109.512 141.903 103.972 141.903 96.8591C141.903 90.497 140.383 85.3501 137.345 81.4185C134.343 77.4511 130.34 75.4674 125.336 75.4674C120.439 75.4674 116.49 77.4154 113.487 81.3113C110.485 85.2071 108.984 90.7829 108.984 98.0386ZM213.369 98.0386C213.369 106.903 211.332 114.033 207.257 119.43C203.182 124.792 197.714 127.472 190.851 127.472C183.524 127.472 177.859 124.881 173.856 119.698L173.374 126.4H164.259V44.05H174.178V74.7704C178.181 69.8023 183.703 67.3182 190.744 67.3182C197.785 67.3182 203.308 69.981 207.311 75.3066C211.35 80.6321 213.369 87.9236 213.369 97.1808V98.0386ZM203.451 96.9127C203.451 90.1574 202.146 84.9391 199.537 81.2576C196.928 77.5762 193.175 75.7355 188.278 75.7355C181.737 75.7355 177.037 78.7736 174.178 84.8497V109.941C177.216 116.017 181.952 119.055 188.385 119.055C193.139 119.055 196.838 117.214 199.483 113.533C202.128 109.851 203.451 104.311 203.451 96.9127Z" fill="black"/>
<path d="M261.651 77.2632C260.919 79.4592 259.455 81.6796 257.259 83.9244C255.112 86.1204 252.379 87.9504 249.06 89.4144C245.791 90.8296 242.204 91.5372 238.3 91.5372C232.346 91.5372 227.979 90.0976 225.197 87.2184C222.416 84.2904 221.025 80.5572 221.025 76.0188C221.025 69.5772 222.464 63.7456 225.344 58.524C228.223 53.2536 232.102 49.13 236.982 46.1532C241.862 43.1276 247.133 41.6148 252.794 41.6148C255.038 41.6148 257.088 42.1272 258.942 43.152C260.797 44.1768 262.261 45.6652 263.334 47.6172C264.408 49.5204 264.945 51.7652 264.945 54.3516C264.945 55.8156 264.384 57.06 263.261 58.0848C262.188 59.1096 260.724 59.622 258.869 59.622C257.405 59.622 256.405 59.2316 255.868 58.4508C255.38 57.67 255.136 56.6696 255.136 55.4496L255.209 53.1072C255.209 52.2288 254.721 51.3748 253.745 50.5452C252.769 49.7156 251.866 49.3008 251.037 49.3008C248.304 49.3008 245.303 50.5452 242.033 53.034C238.764 55.474 236.006 58.7924 233.762 62.9892C231.517 67.1372 230.394 71.6512 230.394 76.5312C230.394 78.776 231.273 80.606 233.03 82.0212C234.786 83.4364 237.007 84.144 239.691 84.144C240.569 84.144 241.716 83.8512 243.131 83.2656C244.546 82.68 245.84 81.948 247.011 81.0696C248.231 80.1912 249.036 79.3372 249.426 78.5076C250.012 77.2876 250.842 75.9212 251.915 74.4084C252.989 72.8956 254.062 72.1392 255.136 72.1392C257.625 72.1392 259.308 72.676 260.187 73.7496C261.114 74.8232 261.602 75.9944 261.651 77.2632ZM281.197 91.5372C276.903 91.5372 273.56 90.0732 271.169 87.1452C268.777 84.2172 267.582 80.484 267.582 75.9456C267.582 72.1392 268.485 68.5524 270.29 65.1852C272.145 61.818 274.658 59.1096 277.83 57.06C281.002 55.0104 284.491 53.9856 288.297 53.9856C292.055 53.9856 295.129 55.23 297.521 57.7188C299.961 60.1588 301.181 63.77 301.181 68.5524C301.181 71.9196 300.253 75.4088 298.399 79.02C296.545 82.6312 294.056 85.6324 290.933 88.0236C287.858 90.366 284.613 91.5372 281.197 91.5372ZM282.295 85.6812C283.857 85.6812 285.418 84.7052 286.98 82.7532C288.59 80.8012 289.908 78.3368 290.933 75.36C291.957 72.3832 292.47 69.4796 292.47 66.6492C292.47 62.306 290.664 60.1344 287.053 60.1344C285.052 60.1344 283.222 61.086 281.563 62.9892C279.904 64.8924 278.586 67.2592 277.61 70.0896C276.634 72.8712 276.146 75.482 276.146 77.922C276.146 79.3372 276.463 80.6548 277.098 81.8748C277.732 83.046 278.513 83.9732 279.44 84.6564C280.416 85.3396 281.368 85.6812 282.295 85.6812ZM308.414 56.5476C308.267 56.4012 308.194 56.2304 308.194 56.0352C308.194 55.5472 308.731 55.1568 309.804 54.864C310.878 54.5224 312.366 54.3516 314.27 54.3516C315.978 54.3516 317.124 54.8396 317.71 55.8156C318.296 56.7428 318.662 57.9628 318.808 59.4756C318.71 59.866 318.613 60.4028 318.515 61.086L318.149 62.8428C319.564 61.1836 321.663 59.5732 324.444 58.0116C327.226 56.4012 329.398 55.596 330.959 55.596C333.399 55.596 335.083 56.0352 336.01 56.9136C336.986 57.7432 337.547 59.3536 337.694 61.7448C339.499 60.0368 341.573 58.5972 343.916 57.426C346.258 56.206 348.308 55.596 350.064 55.596C351.919 55.596 353.627 55.9864 355.188 56.7672C356.75 57.4992 357.531 58.6948 357.531 60.354C357.531 60.7932 357.506 61.1348 357.458 61.3788C357.311 62.1596 357.018 63.2576 356.579 64.6728C356.189 66.0392 355.896 67.0396 355.701 67.674C354.481 71.6268 353.529 74.9696 352.846 77.7024C352.212 80.3864 351.821 83.0216 351.675 85.608L352.7 89.1948C352.114 90.3172 351.284 91.1956 350.211 91.83C349.186 92.5132 347.673 92.8548 345.672 92.8548C344.501 92.8548 343.647 92.4644 343.11 91.6836C342.574 90.9028 342.305 89.9268 342.305 88.7556C342.305 88.5116 342.33 88.2432 342.378 87.9504C342.427 87.6576 342.452 87.3892 342.452 87.1452C342.549 84.4124 342.94 81.6552 343.623 78.8736C344.355 76.0432 345.282 72.8712 346.404 69.3576C347.429 66.2832 347.942 64.4044 347.942 63.7212C347.942 63.4284 347.893 63.1356 347.795 62.8428C347.746 62.5012 347.673 62.3304 347.576 62.3304C346.453 62.3304 344.599 62.8672 342.012 63.9408C339.475 65.0144 337.767 66.088 336.888 67.1616C335.961 70.1384 334.424 76.336 332.277 85.7544L331.838 87.804C331.594 89.0728 331.35 89.9512 331.106 90.4392C330.91 90.9272 330.496 91.2932 329.861 91.5372C329.227 91.7812 328.202 91.9032 326.787 91.9032C323.42 91.9032 321.736 91.22 321.736 89.8536C322.126 88.78 323.2 84.6564 324.957 77.4828C326.03 73.042 327.25 68.1376 328.617 62.7696C328.324 62.916 327.787 63.1356 327.006 63.4284C324.664 64.3556 322.614 65.3072 320.858 66.2832C319.15 67.2592 317.759 68.406 316.685 69.7236L314.782 77.4828C314.489 78.654 314.221 79.752 313.977 80.7768C313.733 81.7528 313.513 82.5824 313.318 83.2656C313.074 84.0952 312.903 85.2176 312.806 86.6328C312.708 87.6088 312.562 88.3164 312.366 88.7556C312.22 89.1948 311.805 89.5608 311.122 89.8536C310.488 90.0976 309.463 90.2196 308.048 90.2196C306.437 90.2196 305.217 90.0488 304.388 89.7072C303.558 89.3656 303.143 88.6336 303.143 87.5112C303.143 86.9744 303.753 84.1196 304.973 78.9468C306.242 73.774 307.95 67.0396 310.097 58.7436L308.414 56.5476ZM368.626 86.7792C368.578 87.072 367.919 89.7316 366.65 94.758C365.43 99.8332 364.576 103.03 364.088 104.347C363.893 104.884 363.307 105.274 362.331 105.518C361.355 105.811 360.648 105.958 360.208 105.958C358.012 105.958 356.841 104.616 356.695 101.932C357.622 96.3684 359.184 88.8776 361.38 79.4592C363.576 69.992 365.479 62.2572 367.089 56.2548C367.187 55.5228 367.626 54.8152 368.407 54.132C369.236 53.4 369.968 53.034 370.603 53.034C371.725 53.034 372.652 53.3756 373.384 54.0588C374.165 54.6932 374.629 55.6204 374.775 56.8404C376.727 55.5228 378.972 54.864 381.51 54.864C384.242 54.864 386.731 55.474 388.976 56.694C391.221 57.8652 392.978 59.5732 394.246 61.818C395.564 64.0628 396.223 66.6736 396.223 69.6504C396.223 73.3104 395.515 76.7752 394.1 80.0448C392.685 83.3144 390.562 85.974 387.732 88.0236C384.901 90.0732 381.485 91.098 377.484 91.098C376.215 91.098 374.58 90.6832 372.579 89.8536C370.578 88.9752 369.261 87.9504 368.626 86.7792ZM370.896 77.4828C370.798 78.0684 370.749 78.4832 370.749 78.7272C370.798 79.9472 371.188 81.0208 371.92 81.948C372.701 82.8752 373.604 83.6072 374.629 84.144C375.654 84.632 376.508 84.876 377.191 84.876C379.338 84.876 381.217 84.1196 382.827 82.6068C384.486 81.094 385.755 79.1908 386.634 76.8972C387.512 74.6036 387.951 72.3588 387.951 70.1628C387.951 67.2836 387.219 65.112 385.755 63.648C384.291 62.1352 382.486 61.3788 380.338 61.3788C379.216 61.3788 378.094 61.5984 376.971 62.0376C375.898 62.4768 374.946 63.1356 374.116 64.014L370.896 77.4828ZM428.308 88.7556C427.966 89.634 427.161 90.2196 425.892 90.5124C424.672 90.854 423.599 91.0248 422.671 91.0248C421.793 91.0248 421.207 90.8052 420.915 90.366C420.671 89.9756 420.451 89.3656 420.256 88.536C420.061 87.7064 419.939 87.1452 419.89 86.8524C417.791 88.2676 415.644 89.3412 413.448 90.0732C411.301 90.854 409.495 91.2444 408.031 91.2444C406.763 91.2444 405.323 90.8296 403.713 90C402.151 89.1704 400.809 88.048 399.687 86.6328C398.564 85.2176 398.003 83.656 398.003 81.948C398.003 79.2152 398.906 75.726 400.711 71.4804C402.517 67.2348 405.055 63.526 408.324 60.354C411.643 57.182 415.498 55.596 419.89 55.596C423.745 55.596 427.185 56.206 430.211 57.426C433.237 58.646 434.749 60.3784 434.749 62.6232C433.383 65.1608 431.895 68.9672 430.284 74.0424C428.723 79.1176 427.942 82.8752 427.942 85.3152C427.942 86.9256 428.064 88.0724 428.308 88.7556ZM420.036 80.7036C420.427 78.5564 421.085 76.0188 422.013 73.0908C422.989 70.114 424.282 67.1372 425.892 64.1604C425.648 63.1844 424.867 62.55 423.55 62.2572C422.281 61.9156 421.134 61.7448 420.109 61.7448C418.304 61.7448 416.352 62.9648 414.253 65.4048C412.155 67.8448 410.349 70.6996 408.837 73.9692C407.373 77.19 406.641 79.8008 406.641 81.8016C406.641 82.7776 406.909 83.4852 407.446 83.9244C407.983 84.3148 408.666 84.51 409.495 84.51C410.618 84.51 412.399 84.0952 414.839 83.2656C417.328 82.3872 419.06 81.5332 420.036 80.7036ZM443.164 54.498C445.458 53.278 447.361 52.668 448.874 52.668C450.533 52.668 451.46 53.522 451.655 55.23L448.727 66.1368C451.948 61.5008 454.949 58.3044 457.731 56.5476C460.512 54.742 463.001 53.8392 465.197 53.8392C467.784 53.8392 469.662 54.3272 470.834 55.3032C472.054 56.2304 472.688 57.7188 472.737 59.7684C471.078 64.258 469.687 68.528 468.564 72.5784C467.491 76.6288 466.954 80.362 466.954 83.778V85.4616C466.954 86.828 466.564 87.7308 465.783 88.17C465.051 88.5604 463.562 88.7556 461.318 88.7556C460.439 88.7556 459.61 88.6092 458.829 88.3164C458.097 88.0236 457.731 87.5356 457.731 86.8524C457.731 84.9004 458.17 82.0456 459.048 78.288C459.927 74.5304 460.903 70.8216 461.976 67.1616C463.099 63.5016 463.66 61.7692 463.66 61.9644C463.66 61.2812 463.27 60.9396 462.489 60.9396C461.464 60.9396 459.805 61.8424 457.511 63.648C455.218 65.4536 452.875 68.284 450.484 72.1392C448.093 75.9456 446.19 80.728 444.774 86.4864C444.726 86.7792 444.628 87.316 444.482 88.0968C444.335 88.8776 443.945 89.4388 443.31 89.7804C442.676 90.0732 441.651 90.2196 440.236 90.2196C438.626 90.2196 437.43 90.0488 436.649 89.7072C435.868 89.3656 435.478 88.6336 435.478 87.5112L437.674 78.1416C438.26 75.604 439.016 72.3832 439.943 68.4792C440.87 64.5264 441.944 59.866 443.164 54.498ZM496.158 86.9256C494.499 88.4872 492.889 89.634 491.327 90.366C489.766 91.1468 488.009 91.5372 486.057 91.5372C482.836 91.5372 480.347 90.5368 478.59 88.536C476.882 86.5352 476.028 83.8756 476.028 80.5572C476.028 79.5812 476.175 78.5076 476.468 77.3364L481.372 58.2312C481.665 57.1576 482.177 56.3768 482.909 55.8888C483.69 55.352 484.934 55.0836 486.642 55.0836C489.18 55.0836 490.449 55.7912 490.449 57.2064C490.449 57.792 490.278 58.7192 489.936 59.988L485.032 79.6056C484.886 80.1912 484.812 80.7768 484.812 81.3624C484.812 82.3872 485.081 83.2168 485.618 83.8512C486.154 84.4856 487.008 84.8028 488.18 84.8028C489.692 84.8028 491.327 84.3636 493.084 83.4852C494.841 82.6068 496.329 81.5332 497.549 80.2644L498.94 74.4816C499.867 70.5776 500.941 66.3564 502.161 61.818C502.698 59.866 503.381 58.28 504.21 57.06C505.089 55.7912 506.455 55.1568 508.31 55.1568C510.896 55.1568 512.189 55.9376 512.189 57.4992C512.189 57.7432 512.116 58.0604 511.97 58.4508C511.872 58.7924 511.799 59.0852 511.75 59.3292L509.334 69.3576C506.797 79.996 505.138 86.8036 504.357 89.7804C503.088 94.6604 501.648 98.4912 500.038 101.273C498.428 104.054 496.402 106.055 493.962 107.275C491.571 108.495 488.497 109.105 484.739 109.105C482.348 109.105 480.372 108.764 478.81 108.08C477.297 107.397 476.175 106.568 475.443 105.592C474.76 104.616 474.418 103.713 474.418 102.883C474.418 100.492 475.736 99.2964 478.371 99.2964C479.103 99.2964 479.688 99.4428 480.128 99.7356C480.616 100.028 481.104 100.443 481.592 100.98C482.324 101.663 482.982 102.176 483.568 102.517C484.202 102.859 485.056 103.03 486.13 103.03C486.96 103.03 487.887 102.688 488.912 102.005C489.936 101.322 490.937 100.248 491.913 98.784C492.889 97.32 493.694 95.49 494.328 93.294L496.158 86.9256Z" fill="#6930C3"/>
<g clip-path="url(#clip0_56:40)">
<path d="M61 48.8002H48.8V42.7002C48.8 39.3147 46.0855 36.6002 42.7 36.6002H30.5C27.1145 36.6002 24.4 39.3147 24.4 42.7002V48.8002H12.2C8.81448 48.8002 6.13048 51.5147 6.13048 54.9002L6.09998 88.4502C6.09998 91.8357 8.81448 94.5502 12.2 94.5502H61C64.3855 94.5502 67.1 91.8357 67.1 88.4502V54.9002C67.1 51.5147 64.3855 48.8002 61 48.8002ZM42.7 48.8002H30.5V42.7002H42.7V48.8002Z" fill="#6930C3"/>
</g>
<defs>
<clipPath id="clip0_56:40">
<rect width="73.2" height="73.2" fill="white" transform="translate(0 30.5001)"/>
</clipPath>
</defs>
</svg>
