<svg width="278" height="74" viewBox="0 0 278 74" fill="none" xmlns="http://www.w3.org/2000/svg">
<path d="M37.1232 23.3631H42.2235V50.6087C42.2235 54.2908 41.1136 57.1713 38.8938 59.2501C36.6916 61.329 33.7494 62.3685 30.0674 62.3685C26.2443 62.3685 23.267 61.3907 21.1352 59.4351C19.0035 57.4796 17.9376 54.74 17.9376 51.2165H23.0115C23.0115 53.4187 23.6105 55.1364 24.8085 56.3697C26.0241 57.6029 27.7771 58.2195 30.0674 58.2195C32.1639 58.2195 33.8552 57.5589 35.1412 56.2375C36.4449 54.9162 37.1056 53.0664 37.1232 50.688V23.3631ZM48.8037 47.279C48.8037 44.4778 49.3498 41.9585 50.4421 39.721C51.552 37.4836 53.0848 35.7571 55.0403 34.5415C57.0135 33.3258 59.2597 32.718 61.7791 32.718C65.6725 32.718 68.8173 34.0658 71.2133 36.7613C73.6269 39.4568 74.8337 43.042 74.8337 47.5168V47.8604C74.8337 50.6439 74.2964 53.1456 73.2217 55.3655C72.1646 57.5677 70.6407 59.2854 68.6499 60.5186C66.6768 61.7518 64.4041 62.3685 61.8319 62.3685C57.956 62.3685 54.8113 61.0207 52.3977 58.3252C50.0017 55.6297 48.8037 52.0622 48.8037 47.6225V47.279ZM53.719 47.8604C53.719 51.0315 54.4501 53.5773 55.9124 55.4976C57.3923 57.4179 59.3654 58.3781 61.8319 58.3781C64.316 58.3781 66.2892 57.4091 67.7514 55.4712C69.2137 53.5156 69.9448 50.7849 69.9448 47.279C69.9448 44.1431 69.1961 41.6061 67.6986 39.6682C66.2187 37.7126 64.2455 36.7348 61.7791 36.7348C59.3654 36.7348 57.4187 37.695 55.9388 39.6153C54.4589 41.5356 53.719 44.284 53.719 47.8604ZM105.171 47.8604C105.171 52.2295 104.167 55.7442 102.159 58.4045C100.15 61.0471 97.4547 62.3685 94.0721 62.3685C90.4605 62.3685 87.6681 61.0912 85.695 58.5366L85.4571 61.8399H80.9646V21.249H85.8535V36.3913C87.8267 33.9425 90.5486 32.718 94.0193 32.718C97.4899 32.718 100.212 34.0305 102.185 36.6556C104.176 39.2806 105.171 42.8746 105.171 47.4375V47.8604ZM100.282 47.3054C100.282 43.9757 99.6393 41.4035 98.3532 39.5889C97.0671 37.7743 95.2173 36.867 92.8037 36.867C89.5796 36.867 87.2629 38.3645 85.8535 41.3595V53.727C87.351 56.722 89.6853 58.2195 92.8565 58.2195C95.1997 58.2195 97.0231 57.3122 98.3268 55.4976C99.6305 53.683 100.282 50.9523 100.282 47.3054Z" fill="black"/>
<path d="M124.82 31.6243C126.432 31.8889 127.502 32.4541 128.032 33.3201C128.585 34.162 128.862 35.1602 128.862 36.3148C128.862 36.5553 128.849 36.7357 128.825 36.856C128.368 39.7906 127.142 41.8833 125.145 43.1341C123.149 44.3608 120.791 44.9742 118.073 44.9742C117.376 44.9742 116.618 44.89 115.8 44.7216C115.006 44.5773 114.357 44.3608 113.852 44.0722C113.491 44.3368 112.818 44.4691 111.831 44.4691C111.182 44.4691 110.725 44.2165 110.46 43.7114C110.196 43.1822 110.063 42.5447 110.063 41.7991C110.063 41.5345 110.099 41.2819 110.172 41.0414L114.213 24.8771C112.505 25.4544 111.446 26.0558 111.038 26.6812C110.292 25.8874 109.919 25.1538 109.919 24.4803C109.919 23.9511 110.124 23.4099 110.532 22.8566C111.495 22.2312 113.058 21.6419 115.223 21.0887C115.415 20.5835 115.656 20.2347 115.945 20.0423C116.257 19.8499 116.714 19.7537 117.316 19.7537C117.821 19.7537 118.29 19.8018 118.723 19.898C119.18 19.9942 119.505 20.1385 119.697 20.331C120.852 20.1866 122.018 20.1145 123.197 20.1145C125.65 20.1145 127.454 20.6076 128.609 21.5938C129.764 22.5559 130.341 23.903 130.341 25.6348C130.341 27.1021 129.824 28.365 128.789 29.4233C127.755 30.4577 126.432 31.1913 124.82 31.6243ZM117.496 30.6862C122.764 30.2532 125.398 28.7137 125.398 26.0678C125.398 25.3221 125.169 24.7449 124.712 24.3359C124.255 23.903 123.473 23.6865 122.367 23.6865C121.381 23.6865 120.286 23.7466 119.084 23.8669L117.496 30.6862ZM117.604 41.4743C118.687 41.4743 119.733 41.2819 120.743 40.897C121.778 40.4881 122.62 39.9229 123.269 39.2012C123.918 38.4556 124.243 37.5896 124.243 36.6034C124.243 35.7856 123.955 35.088 123.377 34.5107C122.824 33.9094 122.042 33.6087 121.032 33.6087C119.132 33.6087 117.761 33.6809 116.919 33.8252C116.534 35.1241 115.896 37.5295 115.006 41.0414C115.776 41.33 116.642 41.4743 117.604 41.4743ZM138.851 44.7577C136.734 44.7577 135.086 44.0361 133.908 42.5928C132.729 41.1496 132.14 39.3095 132.14 37.0725C132.14 35.1963 132.585 33.4283 133.475 31.7686C134.389 30.1089 135.628 28.7739 137.191 27.7636C138.755 26.7534 140.474 26.2482 142.351 26.2482C144.203 26.2482 145.718 26.8616 146.897 28.0883C148.1 29.291 148.701 31.071 148.701 33.4283C148.701 35.088 148.244 36.8079 147.33 38.5879C146.416 40.3679 145.189 41.8472 143.65 43.0258C142.134 44.1804 140.535 44.7577 138.851 44.7577ZM139.392 41.8712C140.162 41.8712 140.932 41.3902 141.701 40.428C142.495 39.4658 143.144 38.2511 143.65 36.7838C144.155 35.3165 144.407 33.8853 144.407 32.4902C144.407 30.3494 143.517 29.279 141.737 29.279C140.751 29.279 139.849 29.7481 139.031 30.6862C138.213 31.6243 137.564 32.7909 137.083 34.186C136.602 35.5571 136.361 36.844 136.361 38.0467C136.361 38.7442 136.518 39.3937 136.83 39.995C137.143 40.5723 137.528 41.0293 137.985 41.3661C138.466 41.7029 138.935 41.8712 139.392 41.8712ZM164.606 43.3866C164.437 43.8196 164.041 44.1082 163.415 44.2526C162.814 44.4209 162.285 44.5051 161.828 44.5051C161.395 44.5051 161.106 44.3969 160.962 44.1804C160.841 43.988 160.733 43.6873 160.637 43.2784C160.541 42.8695 160.481 42.5928 160.457 42.4485C159.422 43.1461 158.364 43.6753 157.281 44.0361C156.223 44.4209 155.333 44.6134 154.611 44.6134C153.986 44.6134 153.276 44.4089 152.483 44C151.713 43.5911 151.051 43.0378 150.498 42.3403C149.945 41.6427 149.668 40.873 149.668 40.0311C149.668 38.6841 150.113 36.9642 151.003 34.8715C151.893 32.7789 153.144 30.9508 154.756 29.3873C156.391 27.8238 158.292 27.042 160.457 27.042C162.357 27.042 164.053 27.3427 165.544 27.944C167.035 28.5454 167.781 29.3993 167.781 30.5058C167.107 31.7566 166.374 33.6328 165.58 36.1344C164.81 38.636 164.425 40.4881 164.425 41.6908C164.425 42.4846 164.486 43.0499 164.606 43.3866ZM160.529 39.4177C160.721 38.3594 161.046 37.1086 161.503 35.6653C161.984 34.198 162.621 32.7307 163.415 31.2635C163.295 30.7824 162.91 30.4697 162.261 30.3254C161.635 30.157 161.07 30.0728 160.565 30.0728C159.675 30.0728 158.713 30.6741 157.678 31.8768C156.644 33.0795 155.754 34.4867 155.008 36.0983C154.287 37.6859 153.926 38.9727 153.926 39.9589C153.926 40.44 154.058 40.7888 154.323 41.0053C154.587 41.1977 154.924 41.2939 155.333 41.2939C155.886 41.2939 156.764 41.0895 157.967 40.6806C159.194 40.2476 160.048 39.8266 160.529 39.4177ZM172.542 42.6289C172.518 42.7733 172.458 43.0619 172.361 43.4949C172.289 43.9038 172.085 44.1924 171.748 44.3608C171.435 44.5292 170.93 44.6134 170.233 44.6134C169.439 44.6134 168.862 44.5292 168.501 44.3608C168.14 44.1924 167.96 43.8316 167.96 43.2784L169.692 36.3869C170.654 32.418 171.291 29.8924 171.604 28.81L170.702 27.7275C170.63 27.6554 170.594 27.5712 170.594 27.475C170.594 27.2344 170.858 27.042 171.387 26.8977C171.917 26.7293 172.65 26.6451 173.588 26.6451C174.43 26.6451 174.995 26.8856 175.284 27.3667C175.573 27.8238 175.753 28.4251 175.825 29.1708L175.573 30.1089C176.342 29.1708 177.232 28.401 178.243 27.7997C179.277 27.1743 180.191 26.8616 180.985 26.8616C182.019 26.8616 182.825 27.042 183.402 27.4028C183.98 27.7636 184.268 28.2327 184.268 28.81C184.268 29.3151 184.088 29.8443 183.727 30.3975C183.39 30.9267 182.957 31.3837 182.428 31.7686C181.899 32.1294 181.382 32.3339 180.877 32.382C180.396 32.382 180.071 32.3218 179.902 32.2016C179.734 32.0813 179.65 31.9009 179.65 31.6603L179.866 30.4697C177.942 30.9989 176.198 32.2737 174.635 34.2942L172.542 42.6289ZM193.366 27.042C193.992 27.042 194.569 27.1623 195.098 27.4028C195.651 27.6433 196.096 27.9681 196.433 28.377C196.89 26.6211 197.287 25.1417 197.624 23.939C198.273 21.6539 198.742 19.8739 199.031 18.5991C199.127 18.2142 199.38 17.9135 199.789 17.6971C200.198 17.4806 200.655 17.3723 201.16 17.3723C201.593 17.3723 202.062 17.4685 202.567 17.661C203.072 17.8534 203.325 18.13 203.325 18.4908C202.41 22.0989 201.4 25.9475 200.294 30.0367C198.706 36.0021 197.72 39.8868 197.335 41.6908C197.335 42.4846 197.395 43.0499 197.515 43.3866C197.347 43.8196 196.95 44.1082 196.325 44.2526C195.723 44.4209 195.194 44.5051 194.737 44.5051C194.304 44.5051 194.016 44.3969 193.871 44.1804C193.751 43.988 193.643 43.6873 193.547 43.2784C193.45 42.8695 193.39 42.5928 193.366 42.4485C192.332 43.1461 191.274 43.6753 190.191 44.0361C189.133 44.4209 188.243 44.6134 187.521 44.6134C186.896 44.6134 186.186 44.4089 185.392 44C184.623 43.5911 183.961 43.0378 183.408 42.3403C182.855 41.6427 182.578 40.873 182.578 40.0311C182.578 38.6841 183.023 36.9642 183.913 34.8715C184.803 32.7789 186.054 30.9508 187.665 29.3873C189.301 27.8238 191.201 27.042 193.366 27.042ZM193.438 39.4177C193.655 38.9607 193.871 38.3233 194.088 37.5054C194.304 36.6876 194.521 35.8457 194.737 34.9798C195.002 33.729 195.315 32.4902 195.675 31.2635C195.555 30.7824 195.254 30.4697 194.773 30.3254C194.316 30.157 193.883 30.0728 193.474 30.0728C192.584 30.0728 191.622 30.6741 190.588 31.8768C189.554 33.0795 188.664 34.4867 187.918 36.0983C187.196 37.6859 186.836 38.9727 186.836 39.9589C186.836 40.44 186.968 40.7888 187.232 41.0053C187.497 41.1977 187.834 41.2939 188.243 41.2939C188.796 41.2939 189.674 41.0895 190.877 40.6806C192.103 40.2476 192.957 39.8266 193.438 39.4177Z" fill="#B12929"/>
<path d="M30.0673 23.68H24.0539V20.72C24.0539 19.0772 22.7159 17.76 21.0471 17.76H15.0337C13.3649 17.76 12.0269 19.0772 12.0269 20.72V23.68H6.01345C4.34471 23.68 3.02175 24.9972 3.02175 26.64L3.00671 42.92C3.00671 44.5628 4.34471 45.88 6.01345 45.88H30.0673C31.7361 45.88 33.0741 44.5628 33.0741 42.92V26.64C33.0741 24.9972 31.7361 23.68 30.0673 23.68ZM21.0471 23.68H15.0337V20.72H21.0471V23.68Z" fill="#B12929"/>
</svg>
