<svg width="285" height="89" viewBox="0 0 285 89" fill="none" xmlns="http://www.w3.org/2000/svg">
<path d="M43.9551 27.6831H49.9938V59.9421C49.9938 64.3017 48.6797 67.7123 46.0514 70.1737C43.444 72.6351 39.9605 73.8658 35.6009 73.8658C31.0744 73.8658 27.5492 72.7081 25.0252 70.3927C22.5012 68.0773 21.2392 64.8337 21.2392 60.6618H27.2467C27.2467 63.2692 27.9559 65.303 29.3743 66.7632C30.8136 68.2233 32.8892 68.9534 35.6009 68.9534C38.0831 68.9534 40.0856 68.1712 41.6084 66.6067C43.152 65.0423 43.9342 62.852 43.9551 60.036V27.6831ZM57.7848 55.9997C57.7848 52.6831 58.4315 49.7002 59.7247 47.051C61.0389 44.4019 62.8536 42.3577 65.169 40.9184C67.5053 39.4791 70.1649 38.7594 73.1477 38.7594C77.7577 38.7594 81.4811 40.3552 84.3179 43.5467C87.1757 46.7382 88.6045 50.983 88.6045 56.2813V56.6881C88.6045 59.9839 87.9683 62.9459 86.6959 65.5742C85.4443 68.1816 83.64 70.2154 81.2829 71.6755C78.9467 73.1357 76.2558 73.8658 73.2103 73.8658C68.6213 73.8658 64.8979 72.27 62.0401 69.0785C59.2033 65.8871 57.7848 61.663 57.7848 56.4065V55.9997ZM63.6046 56.6881C63.6046 60.4428 64.4702 63.4569 66.2016 65.7306C67.9538 68.0043 70.29 69.1411 73.2103 69.1411C76.1515 69.1411 78.4877 67.9939 80.2191 65.6993C81.9504 63.3839 82.8161 60.1507 82.8161 55.9997C82.8161 52.2867 81.9295 49.283 80.1565 46.9885C78.4043 44.6731 76.0681 43.5154 73.1477 43.5154C70.29 43.5154 67.9851 44.6522 66.2329 46.9259C64.4807 49.1996 63.6046 52.4536 63.6046 56.6881ZM124.524 56.6881C124.524 61.8612 123.335 66.0226 120.957 69.1724C118.579 72.3013 115.388 73.8658 111.383 73.8658C107.107 73.8658 103.801 72.3535 101.464 69.3289L101.183 73.24H95.8636V25.18H101.652V43.1086C103.988 40.2092 107.211 38.7594 111.32 38.7594C115.43 38.7594 118.652 40.3135 120.989 43.4215C123.346 46.5296 124.524 50.7849 124.524 56.1875V56.6881ZM118.736 56.031C118.736 52.0886 117.975 49.0431 116.452 46.8946C114.929 44.7461 112.739 43.6718 109.881 43.6718C106.064 43.6718 103.321 45.4449 101.652 48.991V63.6342C103.425 67.1803 106.189 68.9534 109.944 68.9534C112.718 68.9534 114.877 67.8791 116.421 65.7306C117.964 63.5821 118.736 60.3489 118.736 56.031Z" fill="black"/>
<path d="M147.556 37.347C149.464 37.6603 150.731 38.3296 151.358 39.3549C152.013 40.3517 152.34 41.5336 152.34 42.9006C152.34 43.1854 152.326 43.399 152.298 43.5414C151.757 47.016 150.304 49.4938 147.94 50.9747C145.576 52.4272 142.785 53.1534 139.567 53.1534C138.741 53.1534 137.844 53.0538 136.876 52.8544C135.936 52.6835 135.167 52.4272 134.569 52.0854C134.142 52.3987 133.344 52.5554 132.177 52.5554C131.408 52.5554 130.866 52.2563 130.553 51.6582C130.24 51.0317 130.083 50.277 130.083 49.3941C130.083 49.0808 130.126 48.7818 130.211 48.497L134.996 29.3584C132.974 30.0419 131.721 30.7539 131.237 31.4944C130.354 30.5546 129.912 29.6859 129.912 28.8885C129.912 28.2619 130.154 27.6211 130.639 26.9661C131.778 26.2256 133.629 25.5278 136.192 24.8728C136.42 24.2747 136.705 23.8618 137.047 23.6339C137.417 23.4061 137.958 23.2922 138.67 23.2922C139.268 23.2922 139.823 23.3491 140.336 23.463C140.877 23.577 141.262 23.7478 141.49 23.9757C142.857 23.8048 144.238 23.7194 145.633 23.7194C148.538 23.7194 150.674 24.3032 152.041 25.4709C153.408 26.6101 154.092 28.205 154.092 30.2555C154.092 31.9928 153.48 33.488 152.255 34.7411C151.03 35.9658 149.464 36.8344 147.556 37.347ZM138.884 36.2363C145.121 35.7237 148.239 33.901 148.239 30.7682C148.239 29.8853 147.969 29.2018 147.428 28.7176C146.886 28.205 145.961 27.9486 144.651 27.9486C143.483 27.9486 142.187 28.0198 140.763 28.1622L138.884 36.2363ZM139.012 49.0096C140.293 49.0096 141.532 48.7818 142.728 48.3261C143.953 47.8419 144.95 47.1726 145.719 46.3182C146.488 45.4354 146.872 44.4101 146.872 43.2424C146.872 42.2741 146.53 41.4482 145.847 40.7646C145.192 40.0526 144.266 39.6966 143.07 39.6966C140.82 39.6966 139.197 39.7821 138.2 39.953C137.744 41.4909 136.99 44.3389 135.936 48.497C136.847 48.8387 137.873 49.0096 139.012 49.0096ZM164.168 52.8971C161.662 52.8971 159.711 52.0427 158.315 50.3339C156.92 48.6251 156.222 46.4464 156.222 43.7978C156.222 41.5763 156.749 39.483 157.803 37.5179C158.885 35.5528 160.352 33.9722 162.203 32.776C164.054 31.5798 166.09 30.9818 168.312 30.9818C170.505 30.9818 172.299 31.708 173.694 33.1605C175.118 34.5845 175.83 36.692 175.83 39.483C175.83 41.4482 175.289 43.4845 174.207 45.592C173.125 47.6995 171.672 49.451 169.85 50.8466C168.055 52.2136 166.161 52.8971 164.168 52.8971ZM164.809 49.4795C165.72 49.4795 166.631 48.9099 167.543 47.7707C168.483 46.6315 169.252 45.1933 169.85 43.456C170.448 41.7187 170.747 40.0242 170.747 38.3723C170.747 35.8376 169.693 34.5702 167.585 34.5702C166.418 34.5702 165.35 35.1256 164.381 36.2363C163.413 37.347 162.644 38.7283 162.075 40.3802C161.505 42.0035 161.22 43.5272 161.22 44.9512C161.22 45.7771 161.405 46.5461 161.776 47.2581C162.146 47.9416 162.601 48.4827 163.143 48.8814C163.712 49.2802 164.268 49.4795 164.809 49.4795ZM194.662 51.2738C194.463 51.7864 193.993 52.1282 193.252 52.299C192.54 52.4984 191.914 52.5981 191.372 52.5981C190.86 52.5981 190.518 52.4699 190.347 52.2136C190.205 51.9858 190.077 51.6298 189.963 51.1456C189.849 50.6614 189.778 50.3339 189.749 50.163C188.524 50.989 187.271 51.6155 185.99 52.0427C184.737 52.4984 183.683 52.7262 182.828 52.7262C182.088 52.7262 181.248 52.4842 180.308 52C179.397 51.5158 178.613 50.8608 177.958 50.0349C177.303 49.209 176.976 48.2976 176.976 47.3008C176.976 45.7059 177.503 43.6696 178.556 41.1918C179.61 38.7141 181.091 36.5496 182.999 34.6984C184.936 32.8472 187.186 31.9216 189.749 31.9216C191.999 31.9216 194.007 32.2776 195.773 32.9896C197.538 33.7016 198.421 34.7126 198.421 36.0227C197.624 37.5037 196.755 39.7251 195.815 42.687C194.904 45.649 194.448 47.8419 194.448 49.2659C194.448 50.2058 194.52 50.875 194.662 51.2738ZM189.835 46.5746C190.062 45.3214 190.447 43.8405 190.988 42.1317C191.558 40.3944 192.312 38.6571 193.252 36.9198C193.11 36.3502 192.654 35.98 191.885 35.8091C191.145 35.6098 190.475 35.5101 189.877 35.5101C188.824 35.5101 187.684 36.2221 186.46 37.6461C185.235 39.0701 184.181 40.7362 183.298 42.6443C182.444 44.524 182.017 46.0477 182.017 47.2154C182.017 47.785 182.173 48.1979 182.487 48.4542C182.8 48.6821 183.199 48.796 183.683 48.796C184.338 48.796 185.377 48.5539 186.801 48.0698C188.254 47.5571 189.265 47.0587 189.835 46.5746ZM204.058 50.3766C204.03 50.5475 203.959 50.8893 203.845 51.4019C203.759 51.8861 203.517 52.2278 203.118 52.4272C202.748 52.6266 202.15 52.7262 201.324 52.7262C200.384 52.7262 199.701 52.6266 199.274 52.4272C198.846 52.2278 198.633 51.8006 198.633 51.1456L200.683 42.9861C201.823 38.2869 202.577 35.2965 202.948 34.0149L201.88 32.7333C201.794 32.6478 201.751 32.5482 201.751 32.4342C201.751 32.1494 202.065 31.9216 202.691 31.7507C203.318 31.5514 204.186 31.4517 205.297 31.4517C206.294 31.4517 206.963 31.7365 207.305 32.3061C207.647 32.8472 207.86 33.5592 207.946 34.4421L207.647 35.5528C208.558 34.4421 209.612 33.5307 210.808 32.8187C212.033 32.0782 213.115 31.708 214.055 31.708C215.279 31.708 216.234 31.9216 216.917 32.3488C217.601 32.776 217.942 33.3314 217.942 34.0149C217.942 34.613 217.729 35.2395 217.302 35.8946C216.903 36.5211 216.39 37.0622 215.764 37.5179C215.137 37.9451 214.525 38.1872 213.927 38.2442C213.357 38.2442 212.973 38.173 212.773 38.0306C212.574 37.8882 212.474 37.6746 212.474 37.3898L212.73 35.98C210.452 36.6066 208.387 38.116 206.536 40.5083L204.058 50.3766ZM228.714 31.9216C229.455 31.9216 230.138 32.064 230.765 32.3488C231.42 32.6336 231.947 33.0181 232.346 33.5022C232.887 31.4232 233.357 29.6717 233.755 28.2477C234.524 25.5421 235.08 23.4346 235.421 21.9251C235.535 21.4694 235.834 21.1134 236.319 20.8571C236.803 20.6008 237.344 20.4726 237.942 20.4726C238.455 20.4726 239.01 20.5866 239.608 20.8144C240.206 21.0422 240.505 21.3698 240.505 21.797C239.423 26.069 238.227 30.6258 236.917 35.4674C235.037 42.5304 233.869 47.1299 233.414 49.2659C233.414 50.2058 233.485 50.875 233.627 51.2738C233.428 51.7864 232.958 52.1282 232.217 52.299C231.505 52.4984 230.879 52.5981 230.338 52.5981C229.825 52.5981 229.483 52.4699 229.313 52.2136C229.17 51.9858 229.042 51.6298 228.928 51.1456C228.814 50.6614 228.743 50.3339 228.714 50.163C227.49 50.989 226.237 51.6155 224.955 52.0427C223.702 52.4984 222.648 52.7262 221.794 52.7262C221.053 52.7262 220.213 52.4842 219.273 52C218.362 51.5158 217.579 50.8608 216.924 50.0349C216.269 49.209 215.941 48.2976 215.941 47.3008C215.941 45.7059 216.468 43.6696 217.522 41.1918C218.576 38.7141 220.057 36.5496 221.965 34.6984C223.901 32.8472 226.151 31.9216 228.714 31.9216ZM228.8 46.5746C229.056 46.0334 229.313 45.2787 229.569 44.3104C229.825 43.3421 230.081 42.3453 230.338 41.32C230.651 39.839 231.021 38.3723 231.449 36.9198C231.306 36.3502 230.95 35.98 230.381 35.8091C229.839 35.6098 229.327 35.5101 228.843 35.5101C227.789 35.5101 226.65 36.2221 225.425 37.6461C224.2 39.0701 223.147 40.7362 222.264 42.6443C221.409 44.524 220.982 46.0477 220.982 47.2154C220.982 47.785 221.139 48.1979 221.452 48.4542C221.765 48.6821 222.164 48.796 222.648 48.796C223.303 48.796 224.343 48.5539 225.767 48.0698C227.219 47.5571 228.23 47.0587 228.8 46.5746Z" fill="#089B4D"/>
<path d="M35.6009 28.48H28.4809V24.92C28.4809 22.9442 26.8967 21.36 24.9209 21.36H17.8009C15.8251 21.36 14.2409 22.9442 14.2409 24.92V28.48H7.12085C5.14505 28.48 3.57865 30.0642 3.57865 32.04L3.56085 51.62C3.56085 53.5958 5.14505 55.18 7.12085 55.18H35.6009C37.5767 55.18 39.1609 53.5958 39.1609 51.62V32.04C39.1609 30.0642 37.5767 28.48 35.6009 28.48ZM24.9209 28.48H17.8009V24.92H24.9209V28.48Z" fill="#29B169"/>
</svg>
