<svg width="564" height="153" viewBox="0 0 564 153" fill="none" xmlns="http://www.w3.org/2000/svg">
<path d="M75.3148 48.3391H85.6622V103.614C85.6622 111.084 83.4104 116.928 78.9069 121.146C74.4391 125.364 68.4702 127.472 61.0001 127.472C53.244 127.472 47.2036 125.489 42.8788 121.521C38.554 117.554 36.3916 111.996 36.3916 104.847H46.6853C46.6853 109.315 47.9005 112.8 50.331 115.302C52.7972 117.804 56.3536 119.055 61.0001 119.055C65.2534 119.055 68.6846 117.715 71.2938 115.034C73.9387 112.353 75.2791 108.6 75.3148 103.775V48.3391ZM99.0119 96.8591C99.0119 91.1761 100.12 86.065 102.336 81.5257C104.588 76.9864 107.697 73.4837 111.665 71.0175C115.668 68.5513 120.225 67.3182 125.336 67.3182C133.235 67.3182 139.615 70.0525 144.476 75.521C149.373 80.9896 151.821 88.2631 151.821 97.3416V98.0386C151.821 103.686 150.731 108.761 148.551 113.265C146.406 117.733 143.314 121.217 139.275 123.719C135.272 126.221 130.662 127.472 125.443 127.472C117.58 127.472 111.2 124.738 106.303 119.269C101.442 113.801 99.0119 106.563 99.0119 97.5561V96.8591ZM108.984 98.0386C108.984 104.472 110.467 109.637 113.434 113.533C116.436 117.429 120.439 119.377 125.443 119.377C130.483 119.377 134.486 117.411 137.453 113.479C140.419 109.512 141.903 103.972 141.903 96.8591C141.903 90.497 140.383 85.3501 137.345 81.4185C134.343 77.4511 130.34 75.4674 125.336 75.4674C120.439 75.4674 116.49 77.4154 113.487 81.3113C110.485 85.2071 108.984 90.7829 108.984 98.0386ZM213.369 98.0386C213.369 106.903 211.332 114.033 207.257 119.43C203.182 124.792 197.714 127.472 190.851 127.472C183.524 127.472 177.859 124.881 173.856 119.698L173.374 126.4H164.259V44.05H174.178V74.7704C178.181 69.8023 183.703 67.3182 190.744 67.3182C197.785 67.3182 203.308 69.981 207.311 75.3066C211.35 80.6321 213.369 87.9236 213.369 97.1808V98.0386ZM203.451 96.9127C203.451 90.1574 202.146 84.9391 199.537 81.2576C196.928 77.5762 193.175 75.7355 188.278 75.7355C181.737 75.7355 177.037 78.7736 174.178 84.8497V109.941C177.216 116.017 181.952 119.055 188.385 119.055C193.139 119.055 196.838 117.214 199.483 113.533C202.128 109.851 203.451 104.311 203.451 96.9127Z" fill="black"/>
<path d="M259.528 84.2172C260.114 84.3148 260.797 84.8516 261.578 85.8276C262.358 86.8036 262.749 87.7064 262.749 88.536C262.749 89.0728 262.334 89.4876 261.504 89.7804C261.212 89.878 260.724 90.0488 260.04 90.2928C259.406 90.5856 258.82 90.7808 258.284 90.8784C257.747 90.976 257.137 91.0248 256.454 91.0248C255.429 91.0248 254.648 90.9028 254.111 90.6588C252.745 90.0732 250.964 88.7068 248.768 86.5596C246.572 84.4124 244.449 81.9724 242.399 79.2396C240.35 76.458 238.837 73.8716 237.861 71.4804H237.422C236.055 71.4804 235.055 71.456 234.42 71.4072C232.956 76.824 231.736 81.5576 230.76 85.608C230.37 87.316 229.76 88.6336 228.93 89.5608C228.15 90.488 226.856 90.9516 225.051 90.9516C223.538 90.9516 222.416 90.6832 221.684 90.1464C221 89.6584 220.659 88.8044 220.659 87.5844C220.659 87.0476 220.732 86.5352 220.878 86.0472L229.736 51.8628C227.198 52.5948 225.27 53.5952 223.953 54.864C223.416 54.2784 222.977 53.522 222.635 52.5948C222.342 51.6188 222.196 50.6672 222.196 49.74C222.196 49.0568 222.391 48.52 222.782 48.1296C223.221 47.6904 223.806 47.3 224.538 46.9584C224.782 46.812 225.661 46.3728 227.174 45.6408C228.735 44.9088 230.224 44.3476 231.639 43.9572C232.078 42.9812 232.737 42.176 233.615 41.5416C234.542 40.9072 235.714 40.59 237.129 40.59C237.958 40.59 238.642 40.7608 239.178 41.1024C239.715 41.3952 240.081 41.7856 240.276 42.2736C242.082 41.688 244.254 41.3952 246.791 41.3952C249.914 41.3952 252.623 42.0296 254.916 43.2984C257.259 44.5184 259.04 46.1044 260.26 48.0564C261.48 50.0084 262.09 51.9848 262.09 53.9856C262.09 58.4264 260.65 61.9888 257.771 64.6728C254.941 67.308 251.281 69.1868 246.791 70.3092C247.816 72.066 249.182 74.0424 250.89 76.2384C252.598 78.4344 254.209 80.3132 255.722 81.8748C257.283 83.3876 258.308 84.144 258.796 84.144L259.528 84.2172ZM239.471 49.8864C238.056 55.5472 236.885 60.4516 235.958 64.5996C236.543 64.6484 237.373 64.6728 238.446 64.6728C240.789 64.6728 243.131 64.3312 245.474 63.648C247.816 62.916 249.768 61.8424 251.33 60.4272C252.94 59.012 253.745 57.2552 253.745 55.1568C253.745 53.2536 252.964 51.7408 251.403 50.6184C249.841 49.4472 247.743 48.8616 245.108 48.8616C243.644 48.8616 241.765 49.2032 239.471 49.8864ZM279.25 91.5372C274.467 91.5372 270.978 90.5856 268.782 88.6824C266.586 86.7792 265.488 84.2416 265.488 81.0696C265.488 76.4336 266.635 72.1392 268.928 68.1864C271.271 64.2336 274.37 61.1104 278.225 58.8168C282.129 56.4744 286.326 55.3032 290.815 55.3032C293.548 55.3032 295.842 56.084 297.696 57.6456C299.55 59.1584 300.478 61.4032 300.478 64.38C300.478 66.088 299.916 67.5032 298.794 68.6256C297.72 69.6992 296.159 70.6752 294.109 71.5536C292.06 72.3832 288.741 73.5788 284.154 75.1404C280.006 76.5068 276.639 77.6536 274.052 78.5808C273.857 79.3128 273.76 80.0692 273.76 80.85C273.76 82.2164 274.321 83.2656 275.443 83.9976C276.614 84.7296 278.249 85.0956 280.348 85.0956C281.665 85.0956 283.178 84.8272 284.886 84.2904C286.594 83.7536 287.668 83.0704 288.107 82.2408C289.766 79.2152 291.279 77.7024 292.645 77.7024C294.646 77.7024 295.988 78.0928 296.671 78.8736C297.403 79.6056 297.794 80.4352 297.842 81.3624C297.257 82.924 296.11 84.51 294.402 86.1204C292.694 87.682 290.522 88.9752 287.887 90C285.252 91.0248 282.373 91.5372 279.25 91.5372ZM276.102 71.8464C280.933 70.2848 284.91 68.8452 288.034 67.5276C291.157 66.1612 292.718 64.8192 292.718 63.5016C292.718 62.916 292.401 62.4524 291.767 62.1108C291.132 61.7204 290.449 61.5252 289.717 61.5252C288.253 61.5252 286.57 62.0864 284.666 63.2088C282.812 64.3312 281.08 65.6976 279.469 67.308C277.859 68.9184 276.736 70.4312 276.102 71.8464ZM335.443 81.3624C334.858 82.924 333.711 84.51 332.003 86.1204C330.295 87.682 328.123 88.9752 325.488 90C322.853 91.0248 319.974 91.5372 316.85 91.5372C312.068 91.5372 308.53 90.5612 306.236 88.6092C303.943 86.6084 302.796 84.022 302.796 80.85C302.796 76.2628 303.967 72.0172 306.31 68.1132C308.652 64.1604 311.8 61.0372 315.752 58.7436C319.705 56.45 323.926 55.3032 328.416 55.3032C331.198 55.3032 333.491 56.1328 335.297 57.792C337.151 59.4024 338.078 61.5984 338.078 64.38C338.078 65.4536 337.639 66.3564 336.761 67.0884C335.882 67.7716 334.711 68.1132 333.247 68.1132C332.076 68.1132 331.271 67.8448 330.832 67.308C330.441 66.7712 330.246 66.0636 330.246 65.1852L330.319 63.5016C330.319 62.916 330.002 62.4524 329.368 62.1108C328.733 61.7204 328.05 61.5252 327.318 61.5252C325.805 61.5252 323.756 62.428 321.169 64.2336C318.632 66.0392 316.387 68.4304 314.435 71.4072C312.532 74.3352 311.58 77.4828 311.58 80.85C311.58 82.2164 312.117 83.2656 313.19 83.9976C314.264 84.7296 315.85 85.0956 317.948 85.0956C319.266 85.0956 320.779 84.8272 322.487 84.2904C324.195 83.7536 325.268 83.0704 325.708 82.2408C327.367 79.2152 328.88 77.7024 330.246 77.7024C332.247 77.7024 333.589 78.0928 334.272 78.8736C335.004 79.6056 335.394 80.4352 335.443 81.3624ZM348.548 87.2184C348.499 87.5112 348.377 88.0968 348.182 88.9752C348.035 89.8048 347.621 90.3904 346.937 90.732C346.303 91.0736 345.278 91.2444 343.863 91.2444C342.253 91.2444 341.081 91.0736 340.349 90.732C339.617 90.3904 339.251 89.6584 339.251 88.536C339.398 87.9504 340.447 83.778 342.399 76.0188C343.814 70.0164 344.863 65.7952 345.547 63.3552C346.279 59.8904 347.133 57.6212 348.109 56.5476C349.085 55.4252 350.207 54.864 351.476 54.864C353.184 54.864 354.282 55.108 354.77 55.596C355.307 56.084 355.575 56.7184 355.575 57.4992L354.697 61.818C356.258 59.9148 358.064 58.3532 360.113 57.1332C362.212 55.8644 364.066 55.23 365.677 55.23C367.775 55.23 369.41 55.596 370.581 56.328C371.752 57.06 372.338 58.0116 372.338 59.1828C372.338 60.0612 371.777 60.7688 370.654 61.3056C369.581 61.7936 368.165 62.1108 366.409 62.2572C363.773 62.5012 361.065 63.648 358.283 65.6976C355.551 67.7472 353.501 70.1628 352.135 72.9444L348.548 87.2184ZM399.287 89.7804C399.092 90.61 398.652 91.1712 397.969 91.464C397.286 91.8056 396.383 91.9764 395.261 91.9764C391.894 91.9764 390.21 91.22 390.21 89.7072L390.649 86.9256C388.99 88.4872 387.355 89.634 385.745 90.366C384.183 91.1468 382.402 91.5372 380.401 91.5372C377.571 91.5372 375.18 90.7808 373.228 89.268C371.324 87.7064 370.373 84.9492 370.373 80.9964C370.373 80.0204 370.519 78.9468 370.812 77.7756L375.716 58.2312C376.009 57.1576 376.522 56.3768 377.254 55.8888C378.034 55.352 379.279 55.0836 380.987 55.0836C383.524 55.0836 384.793 55.7912 384.793 57.2064C384.793 57.792 384.622 58.7192 384.281 59.988L379.376 79.6056C379.23 80.1912 379.157 80.7768 379.157 81.3624C379.157 82.3872 379.425 83.2168 379.962 83.8512C380.499 84.4856 381.353 84.8028 382.524 84.8028C384.086 84.8028 385.842 84.3636 387.794 83.4852C389.746 82.558 391.308 81.4844 392.479 80.2644L394.382 72.8712C396.383 64.9656 397.554 60.3784 397.896 59.1096C398.189 58.036 398.457 57.2552 398.701 56.7672C398.994 56.2304 399.482 55.84 400.165 55.596C400.848 55.3032 401.873 55.1568 403.24 55.1568C405.826 55.1568 407.119 55.9376 407.119 57.4992C407.119 57.7432 407.046 58.0604 406.9 58.4508C406.802 58.7924 406.729 59.0852 406.68 59.3292L403.752 71.1876C401.41 80.606 399.921 86.8036 399.287 89.7804ZM417.377 46.5192C417.377 44.9576 417.963 43.4936 419.134 42.1272C420.305 40.7608 421.745 40.0776 423.453 40.0776C425.209 40.0776 426.576 40.6144 427.552 41.688C428.577 42.7616 429.113 44.0548 429.162 45.5676C429.162 47.0316 428.528 48.3736 427.259 49.5936C425.99 50.8136 424.477 51.4236 422.721 51.4236C420.964 51.4236 419.622 50.9844 418.695 50.106C417.816 49.1788 417.377 47.9832 417.377 46.5192ZM411.082 85.0956C411.082 83.8756 413.107 75.0916 417.157 58.7436C417.206 56.9868 417.523 55.8156 418.109 55.23C418.743 54.6444 419.793 54.3516 421.257 54.3516C422.477 54.3516 423.453 54.742 424.185 55.5228C424.965 56.2548 425.356 57.2064 425.356 58.3776C425.356 58.6216 425.307 58.9876 425.209 59.4756L419.207 85.8276L418.914 87.804C418.865 88.5848 418.743 89.1216 418.548 89.4144C418.353 89.7072 417.865 89.9024 417.084 90C416.352 90.1464 415.035 90.2196 413.131 90.2196C412.204 90.2196 411.57 90.0488 411.228 89.7072C410.887 89.3656 410.716 88.8776 410.716 88.2432C410.716 87.6576 410.789 87.1208 410.935 86.6328C411.033 85.852 411.082 85.3396 411.082 85.0956ZM433.508 64.5264C432.922 64.5264 432.483 64.3068 432.19 63.8676C431.897 63.3796 431.751 62.7696 431.751 62.0376C431.751 61.0128 432.141 59.866 432.922 58.5972C433.361 58.158 435.728 57.6944 440.023 57.2064L443.17 43.0056C443.512 41.444 444.073 40.2972 444.854 39.5652C445.683 38.7844 446.586 38.394 447.562 38.394C448.733 38.394 449.783 38.8088 450.71 39.6384C451.686 40.468 452.198 41.444 452.247 42.5664C452.247 42.8592 452.198 43.2496 452.101 43.7376L448.953 56.328C452.174 56.084 454.248 55.962 455.175 55.962C456.005 55.962 456.785 56.1572 457.517 56.5476C458.298 56.8892 458.908 57.304 459.347 57.792C459.787 58.28 460.006 58.6948 460.006 59.0364C460.006 59.866 459.665 60.6224 458.981 61.3056C458.347 61.94 457.615 62.3304 456.785 62.4768L447.196 63.3552L440.901 88.536C440.169 90.5856 439.169 91.6104 437.9 91.6104C436.875 91.6104 435.948 90.976 435.118 89.7072C434.337 88.4384 433.947 86.9988 433.947 85.3884C433.947 84.754 434.02 84.1196 434.167 83.4852L438.485 64.0872L433.508 64.5264ZM472.4 91.5372C467.618 91.5372 464.129 90.5856 461.933 88.6824C459.737 86.7792 458.639 84.2416 458.639 81.0696C458.639 76.4336 459.786 72.1392 462.079 68.1864C464.422 64.2336 467.52 61.1104 471.376 58.8168C475.28 56.4744 479.476 55.3032 483.966 55.3032C486.699 55.3032 488.992 56.084 490.847 57.6456C492.701 59.1584 493.628 61.4032 493.628 64.38C493.628 66.088 493.067 67.5032 491.945 68.6256C490.871 69.6992 489.31 70.6752 487.26 71.5536C485.21 72.3832 481.892 73.5788 477.305 75.1404C473.157 76.5068 469.79 77.6536 467.203 78.5808C467.008 79.3128 466.91 80.0692 466.91 80.85C466.91 82.2164 467.472 83.2656 468.594 83.9976C469.765 84.7296 471.4 85.0956 473.498 85.0956C474.816 85.0956 476.329 84.8272 478.037 84.2904C479.745 83.7536 480.818 83.0704 481.258 82.2408C482.917 79.2152 484.43 77.7024 485.796 77.7024C487.797 77.7024 489.139 78.0928 489.822 78.8736C490.554 79.6056 490.944 80.4352 490.993 81.3624C490.408 82.924 489.261 84.51 487.553 86.1204C485.845 87.682 483.673 88.9752 481.038 90C478.403 91.0248 475.524 91.5372 472.4 91.5372ZM469.253 71.8464C474.084 70.2848 478.061 68.8452 481.184 67.5276C484.308 66.1612 485.869 64.8192 485.869 63.5016C485.869 62.916 485.552 62.4524 484.918 62.1108C484.283 61.7204 483.6 61.5252 482.868 61.5252C481.404 61.5252 479.72 62.0864 477.817 63.2088C475.963 64.3312 474.23 65.6976 472.62 67.308C471.01 68.9184 469.887 70.4312 469.253 71.8464ZM505.17 87.2184C505.121 87.5112 504.999 88.0968 504.804 88.9752C504.658 89.8048 504.243 90.3904 503.56 90.732C502.925 91.0736 501.9 91.2444 500.485 91.2444C498.875 91.2444 497.704 91.0736 496.972 90.732C496.24 90.3904 495.874 89.6584 495.874 88.536L499.387 74.5548C501.339 66.5028 502.632 61.3788 503.267 59.1828L501.437 56.9868C501.29 56.8404 501.217 56.6696 501.217 56.4744C501.217 55.9864 501.754 55.596 502.828 55.3032C503.901 54.9616 505.39 54.7908 507.293 54.7908C509.001 54.7908 510.148 55.2788 510.733 56.2548C511.319 57.182 511.685 58.402 511.831 59.9148L511.319 61.818C512.88 59.9148 514.686 58.3532 516.736 57.1332C518.834 55.8644 520.688 55.23 522.299 55.23C524.397 55.23 526.032 55.596 527.203 56.328C528.374 57.06 528.96 58.0116 528.96 59.1828C528.96 60.2076 528.594 61.2812 527.862 62.4036C527.179 63.4772 526.3 64.4044 525.227 65.1852C524.153 65.9172 523.104 66.332 522.079 66.4296C521.103 66.4296 520.444 66.3076 520.103 66.0636C519.761 65.8196 519.59 65.4536 519.59 64.9656L520.03 62.55C516.126 63.6236 512.588 66.21 509.416 70.3092L505.17 87.2184Z" fill="#B12929"/>
<g clip-path="url(#clip0)">
<path d="M61 48.8002H48.8V42.7002C48.8 39.3147 46.0855 36.6002 42.7 36.6002H30.5C27.1145 36.6002 24.4 39.3147 24.4 42.7002V48.8002H12.2C8.81448 48.8002 6.13048 51.5147 6.13048 54.9002L6.09998 88.4502C6.09998 91.8357 8.81448 94.5502 12.2 94.5502H61C64.3855 94.5502 67.1 91.8357 67.1 88.4502V54.9002C67.1 51.5147 64.3855 48.8002 61 48.8002ZM42.7 48.8002H30.5V42.7002H42.7V48.8002Z" fill="#B12929"/>
</g>
<defs>
<clipPath id="clip0">
<rect width="73.2" height="73.2" fill="white" transform="translate(0 30.5001)"/>
</clipPath>
</defs>
</svg>
